<svg xmlns="http://www.w3.org/2000/svg" width="175.55" height="58.729" viewBox="0 0 175.55 58.729">
  <g id="logo" transform="translate(-75.635 -15.636)">
    <g id="Group_11570" data-name="Group 11570">
      <g id="Group_11517" data-name="Group 11517" transform="translate(208.668 -73.34)">
        <g id="Group_10895" data-name="Group 10895" transform="translate(-58.7 103.583)">
          <path id="Path_24690" data-name="Path 24690" d="M17.514-192.3a6.344,6.344,0,0,1-.671,2.8,8.988,8.988,0,0,1-1.8,2.493,12.247,12.247,0,0,1-2.646,1.956,19.486,19.486,0,0,1-3.2,1.419,20.351,20.351,0,0,1-6.749,1.15,15.225,15.225,0,0,1-2.723-.23A129.682,129.682,0,0,0,2.712-196.56q1.112-6.979,2.147-14.035a45.163,45.163,0,0,1,8.781-1.112q4.026,0,5.6,2.761a4.925,4.925,0,0,1,.614,2.55,8.106,8.106,0,0,1-.479,2.818,10.008,10.008,0,0,1-1.246,2.378,8.131,8.131,0,0,1-3.758,2.953A6.47,6.47,0,0,1,17.514-192.3ZM7.428-190.425q3.49-.383,4.908-1.956a2.255,2.255,0,0,0,.614-1.534,2.141,2.141,0,0,0-.364-1.323,2.835,2.835,0,0,0-.94-.786,5.215,5.215,0,0,0-2.493-.614H8.809a1.261,1.261,0,0,0-.307.038q-.153.959-.288,1.687t-.249,1.4q-.115.671-.249,1.4T7.428-190.425ZM9.422-201.43q4.793-1.074,4.793-2.646,0-1.5-2.454-1.879a5.923,5.923,0,0,0-1.074-.115h-.422q-.077.422-.173,1.016t-.211,1.227q-.115.633-.249,1.265T9.422-201.43Zm14.572,13.268q1.457-.115,4.065-.115a22.973,22.973,0,0,0,.23,2.435q.153.94.211,1.381t.1.594l-1.189-.038a44.508,44.508,0,0,0-8.014.729,22.864,22.864,0,0,0-2.378.614q.92-7.094,2.435-14.917t2.588-13.153l6.9-.92q-3.566,15.109-4.161,18.56T23.994-188.162Zm9.088-22.395q.844-.077,1.975-.192t2.224-.211q1.093-.1,2.282-.211-1,4.717-1.572,7.478t-.92,4.41q-.345,1.649-.614,3.029-.614,2.914-.805,3.8a21.67,21.67,0,0,0-.575,3.413,1.822,1.822,0,0,0,.326,1.17,1.075,1.075,0,0,0,.882.4,1.277,1.277,0,0,0,1-.537,4.688,4.688,0,0,0,.729-1.265,8.726,8.726,0,0,0,.441-1.5q.153-.767.326-1.553t.46-2.186q.288-1.4.575-2.914t.594-3.087q.805-4.026,1.879-10.2l5.944-.383-.192,1q-.46,2.416-1.016,5.579t-1.016,5.464q-1.189,5.982-1.764,8.494a12.783,12.783,0,0,1-1.591,4.084,10.337,10.337,0,0,1-2.358,2.608,9.67,9.67,0,0,1-5.944,1.917,5.677,5.677,0,0,1-3.566-1.15,4.475,4.475,0,0,1-1.687-3.643v-.307q0-.153.1-1.035t.441-3.164q.345-2.282.748-4.755t.863-4.966q.46-2.493.844-4.525Q32.929-209.866,33.082-210.557Zm26.153,15.032q-.729,0-5.637-.153L51.8-184.1q-3.3.575-7.324,1.5,1.15-4.18,2.109-9.7,1.8-10.162,3.029-18.56l13.153-.69-1.112,4.832H55.477L54.25-199.7q1.227-.038,2.224-.038H58.43q.92,0,1.457-.038Zm13.383,0q-.729,0-5.637-.153l-1.8,11.581q-3.3.575-7.324,1.5,1.15-4.18,2.109-9.7,1.8-10.162,3.029-18.56l13.153-.69-1.112,4.832H68.86L67.633-199.7q1.227-.038,2.224-.038h1.956q.92,0,1.457-.038Zm13.383,0q-.729,0-5.637-.153l-1.8,11.581q-3.3.575-7.324,1.5,1.15-4.18,2.109-9.7,1.8-10.162,3.029-18.56l13.153-.69-1.112,4.832H82.243L81.016-199.7q1.227-.038,2.224-.038H85.2q.92,0,1.457-.038Z" transform="translate(0.279 211.707)" fill="#fff"/>
          <path id="Path_24689" data-name="Path 24689" d="M3.183-137.985a3.92,3.92,0,0,0,4-4.059,3.966,3.966,0,0,0-4-4.029,3.962,3.962,0,0,0-4.059,4.029A3.934,3.934,0,0,0,3.183-137.985Zm0-.932a2.977,2.977,0,0,1-3.067-3.1,2.93,2.93,0,0,1,3.007-3.157,3,3,0,0,1,3.067,3.127A2.89,2.89,0,0,1,3.183-138.917Zm-.6-2.676h.331c.12,0,.15.03.18.09.331.481.662.932.842,1.2a.257.257,0,0,0,.18.09h.932c.06,0,.09-.06.06-.12-.241-.391-.962-1.233-1.143-1.5a1.112,1.112,0,0,0,.842-1.082c0-.752-.511-1.2-1.684-1.2H1.71a.08.08,0,0,0-.09.09v3.7c0,.06,0,.12.09.12h.812c.06,0,.06-.06.06-.12Zm0-1.684h.541c.481,0,.662.15.662.421,0,.3-.15.481-.692.481H2.582Z" transform="translate(94.034 146.073)" fill="#fff"/>
        </g>
      </g>
    </g>
    <g id="Group_11573" data-name="Group 11573" transform="translate(-210)">
      <path id="_0c18a1c2dafd13bf79e626e837b6ca4e" data-name="0c18a1c2dafd13bf79e626e837b6ca4e" d="M0,29.364C-.078,8.2,8.235.017,29.365,0,50.5.017,58.808,8.2,58.729,29.364c.078,21.162-8.234,29.35-29.364,29.364C8.235,58.714-.078,50.526,0,29.364ZM29.365,0Z" transform="translate(285.635 15.636)" fill="#4163f6" fill-rule="evenodd" opacity="0.9"/>
      <path id="Union_22" data-name="Union 22" d="M14.7,29.915H.745L2.2,27.445A4.493,4.493,0,0,0,2.219,22.8a14.958,14.958,0,1,1,27.693-7.633A15.217,15.217,0,0,1,14.705,29.915ZM11.948,7.866a7.752,7.752,0,1,0,3.008-.608A7.7,7.7,0,0,0,11.948,7.866Z" transform="translate(329.957 30.043) rotate(90)" fill="#fff"/>
    </g>
  </g>
</svg>
