<svg xmlns="http://www.w3.org/2000/svg" xmlns:xlink="http://www.w3.org/1999/xlink" width="201.243" height="67.269" viewBox="0 0 201.243 67.269">
  <defs>
    <clipPath id="clip-path">
      <rect id="Rectangle_3582" data-name="Rectangle 3582" width="201.243" height="67.269" fill="none"/>
    </clipPath>
  </defs>
  <g id="app_store" data-name="app store" transform="translate(0 0)">
    <g id="Group_11534" data-name="Group 11534" transform="translate(0 0)" clip-path="url(#clip-path)">
      <path id="Path_24902" data-name="Path 24902" d="M185.217,0H16.035c-.617,0-1.226,0-1.841,0-.515,0-1.026.013-1.546.022a22.424,22.424,0,0,0-3.37.3,11.3,11.3,0,0,0-3.2,1.054A10.845,10.845,0,0,0,3.36,3.358,10.545,10.545,0,0,0,1.379,6.085a11.091,11.091,0,0,0-1.051,3.2,21.749,21.749,0,0,0-.3,3.367C.01,13.168.008,13.686,0,14.2V53.074c.008.521.01,1.028.025,1.549a21.712,21.712,0,0,0,.3,3.367,11.044,11.044,0,0,0,1.051,3.2A10.419,10.419,0,0,0,3.36,63.907,10.565,10.565,0,0,0,6.081,65.89a11.316,11.316,0,0,0,3.2,1.061,22.873,22.873,0,0,0,3.37.3c.52.012,1.031.019,1.546.019.616,0,1.224,0,1.841,0H185.217c.6,0,1.219,0,1.823,0,.513,0,1.038-.007,1.551-.019a22.317,22.317,0,0,0,3.363-.3,11.481,11.481,0,0,0,3.209-1.061,10.528,10.528,0,0,0,2.719-1.983,10.8,10.8,0,0,0,1.988-2.714,11.091,11.091,0,0,0,1.041-3.2,22.58,22.58,0,0,0,.313-3.367c.005-.521.005-1.028.005-1.549.013-.612.013-1.219.013-1.84v-35.2c0-.616,0-1.226-.013-1.836,0-.515,0-1.033-.005-1.549a22.6,22.6,0,0,0-.313-3.367,11.121,11.121,0,0,0-1.041-3.2,10.873,10.873,0,0,0-4.707-4.709A11.413,11.413,0,0,0,191.954.321a21.888,21.888,0,0,0-3.363-.3C188.078.017,187.553.007,187.04,0,186.437,0,185.821,0,185.217,0Z" transform="translate(0.254 0)" fill="#a6a6a6"/>
      <path id="Path_24903" data-name="Path 24903" d="M13.607,65.2c-.513,0-1.012-.007-1.52-.019a21.147,21.147,0,0,1-3.143-.274,9.872,9.872,0,0,1-2.787-.922,9.08,9.08,0,0,1-2.349-1.709,8.977,8.977,0,0,1-1.717-2.349,9.681,9.681,0,0,1-.913-2.787A20.864,20.864,0,0,1,.9,53.989c-.012-.355-.025-1.535-.025-1.535V13.6S.888,12.442.9,12.1a21,21,0,0,1,.277-3.148,9.685,9.685,0,0,1,.915-2.8A9.015,9.015,0,0,1,3.8,3.806a9.385,9.385,0,0,1,2.358-1.72,9.826,9.826,0,0,1,2.782-.915A21.3,21.3,0,0,1,12.09.9l1.519-.02H186.437L187.972.9a20.721,20.721,0,0,1,3.126.272,10.012,10.012,0,0,1,2.808.922,9.4,9.4,0,0,1,4.061,4.07,9.727,9.727,0,0,1,.9,2.773,21.828,21.828,0,0,1,.291,3.173c.005.476.005.989.005,1.5.013.631.013,1.231.013,1.836v35.2c0,.61,0,1.207-.013,1.808,0,.547,0,1.048-.007,1.564a21.276,21.276,0,0,1-.286,3.116,9.7,9.7,0,0,1-.908,2.808,9.244,9.244,0,0,1-1.709,2.331,9.1,9.1,0,0,1-2.353,1.719,9.855,9.855,0,0,1-2.805.925,20.967,20.967,0,0,1-3.145.274c-.493.012-1.007.019-1.509.019l-1.823,0Z" transform="translate(0.595 0.596)" fill="#fff"/>
      <path id="Path_24904" data-name="Path 24904" d="M35.487,24.375a8.657,8.657,0,0,1,4.122-7.262,8.857,8.857,0,0,0-6.981-3.772c-2.936-.309-5.783,1.756-7.28,1.756-1.525,0-3.829-1.725-6.31-1.675a9.3,9.3,0,0,0-7.823,4.771c-3.382,5.856-.859,14.461,2.381,19.2,1.621,2.317,3.515,4.907,5.994,4.815,2.427-.1,3.332-1.547,6.259-1.547,2.9,0,3.752,1.547,6.281,1.488,2.6-.042,4.243-2.328,5.807-4.667a19.227,19.227,0,0,0,2.655-5.408,8.363,8.363,0,0,1-5.106-7.694" transform="translate(6.551 9.073)"/>
      <path id="Path_24905" data-name="Path 24905" d="M24.458,13.952a8.517,8.517,0,0,0,1.949-6.1,8.682,8.682,0,0,0-5.61,2.9,8.112,8.112,0,0,0-2,5.878,7.167,7.167,0,0,0,5.661-2.676" transform="translate(12.803 5.349)"/>
      <path id="Path_24906" data-name="Path 24906" d="M47.671,33.318h-7.96L37.8,38.962H34.427l7.541-20.884h3.5L53.01,38.962H49.581Zm-7.136-2.6h6.31l-3.111-9.16h-.086Z" transform="translate(23.47 12.324)"/>
      <path id="Path_24907" data-name="Path 24907" d="M60.973,29.122c0,4.731-2.533,7.771-6.354,7.771a5.162,5.162,0,0,1-4.791-2.664h-.072V41.77H46.631V21.509h3.025v2.533h.057a5.4,5.4,0,0,1,4.848-2.692c3.865,0,6.411,3.054,6.411,7.773m-3.212,0c0-3.083-1.593-5.109-4.024-5.109-2.388,0-3.994,2.069-3.994,5.109,0,3.067,1.606,5.123,3.994,5.123C56.168,34.245,57.761,32.233,57.761,29.122Z" transform="translate(31.79 14.552)"/>
      <path id="Path_24908" data-name="Path 24908" d="M70.939,29.122c0,4.731-2.534,7.771-6.355,7.771a5.162,5.162,0,0,1-4.791-2.664h-.072V41.77H56.6V21.509h3.025v2.533h.057a5.4,5.4,0,0,1,4.848-2.692c3.865,0,6.412,3.054,6.412,7.773m-3.214,0c0-3.083-1.593-5.109-4.024-5.109-2.388,0-3.994,2.069-3.994,5.109,0,3.067,1.606,5.123,3.994,5.123,2.432,0,4.024-2.011,4.024-5.123" transform="translate(38.583 14.552)"/>
      <path id="Path_24909" data-name="Path 24909" d="M73.007,33.284c.232,2.07,2.243,3.431,4.993,3.431,2.634,0,4.529-1.361,4.529-3.227,0-1.621-1.144-2.592-3.849-3.256l-2.706-.653c-3.836-.927-5.615-2.719-5.615-5.63,0-3.6,3.14-6.078,7.6-6.078,4.415,0,7.44,2.476,7.543,6.078H82.342c-.19-2.084-1.912-3.342-4.43-3.342s-4.24,1.273-4.24,3.125c0,1.477,1.1,2.346,3.791,3.01l2.3.565c4.283,1.014,6.063,2.734,6.063,5.79,0,3.907-3.111,6.354-8.061,6.354-4.631,0-7.758-2.39-7.96-6.167Z" transform="translate(47.59 12.183)"/>
      <path id="Path_24910" data-name="Path 24910" d="M85.517,19.3v3.6h2.9v2.474h-2.9v8.394c0,1.305.58,1.912,1.853,1.912a9.559,9.559,0,0,0,1.028-.072v2.46a8.579,8.579,0,0,1-1.736.145c-3.083,0-4.285-1.157-4.285-4.11V25.378H80.162V22.9h2.215V19.3Z" transform="translate(54.649 13.157)"/>
      <path id="Path_24911" data-name="Path 24911" d="M86.064,29.133c0-4.791,2.82-7.8,7.221-7.8s7.223,3.01,7.223,7.8-2.8,7.8-7.223,7.8-7.221-3-7.221-7.8m11.259,0c0-3.286-1.507-5.225-4.038-5.225s-4.04,1.954-4.04,5.225c0,3.3,1.507,5.223,4.04,5.223S97.323,32.432,97.323,29.133Z" transform="translate(58.673 14.542)"/>
      <path id="Path_24912" data-name="Path 24912" d="M96.185,21.509h2.98V24.1h.072a3.634,3.634,0,0,1,3.663-2.751,4.886,4.886,0,0,1,1.071.118V24.39a4.318,4.318,0,0,0-1.4-.188,3.149,3.149,0,0,0-3.274,3.019,3.332,3.332,0,0,0,.017.484v9.031H96.185Z" transform="translate(65.572 14.552)"/>
      <path id="Path_24913" data-name="Path 24913" d="M114.951,32.272c-.42,2.765-3.111,4.662-6.555,4.662-4.43,0-7.179-2.968-7.179-7.729,0-4.776,2.765-7.874,7.048-7.874,4.213,0,6.861,2.894,6.861,7.511v1.071H104.371V30.1a3.966,3.966,0,0,0,3.6,4.3,4.064,4.064,0,0,0,.5.013,3.447,3.447,0,0,0,3.516-2.143Zm-10.565-4.544H112a3.661,3.661,0,0,0-3.453-3.86c-.092-.005-.187-.007-.281-.005a3.856,3.856,0,0,0-3.878,3.831v.034" transform="translate(69.002 14.542)"/>
      <path id="Path_24914" data-name="Path 24914" d="M39.3,8.736a4.438,4.438,0,0,1,4.744,4.11,4.36,4.36,0,0,1-.024.876c0,3.205-1.732,5.049-4.721,5.049H35.671V8.736ZM37.23,17.351h1.892a3.153,3.153,0,0,0,3.337-2.962,3.1,3.1,0,0,0-.027-.647,3.167,3.167,0,0,0-3.31-3.589H37.23Z" transform="translate(24.318 5.947)"/>
      <path id="Path_24915" data-name="Path 24915" d="M41.688,14.037a3.587,3.587,0,1,1,7.142,0,3.588,3.588,0,0,1-7.142.7,3.7,3.7,0,0,1,0-.7m5.605,0c0-1.641-.737-2.6-2.032-2.6s-2.03.96-2.03,2.6.732,2.607,2.03,2.607S47.293,15.685,47.293,14.037Z" transform="translate(28.409 6.89)"/>
      <path id="Path_24916" data-name="Path 24916" d="M54.985,17.768H53.434l-1.566-5.577h-.118l-1.559,5.577H48.656l-2.087-7.573h1.515l1.357,5.778h.113l1.556-5.778h1.435L54.1,15.973h.118l1.35-5.778h1.493Z" transform="translate(31.748 6.95)"/>
      <path id="Path_24917" data-name="Path 24917" d="M53.854,10.257H55.29v1.2H55.4a2.266,2.266,0,0,1,2.259-1.349,2.462,2.462,0,0,1,2.64,2.272,2.363,2.363,0,0,1-.019.545v4.9H58.792V13.3c0-1.218-.531-1.821-1.635-1.821a1.737,1.737,0,0,0-1.818,1.653,1.755,1.755,0,0,0,.01.266v4.43h-1.5Z" transform="translate(36.714 6.888)"/>
      <rect id="Rectangle_3581" data-name="Rectangle 3581" width="1.495" height="10.529" transform="translate(99.38 14.189)"/>
      <path id="Path_24918" data-name="Path 24918" d="M61.225,14.037a3.588,3.588,0,0,1,7.144-.683,3.859,3.859,0,0,1,0,.683,3.589,3.589,0,0,1-7.144.695,3.688,3.688,0,0,1,0-.695m5.605,0c0-1.641-.737-2.6-2.032-2.6s-2.03.96-2.03,2.6.732,2.607,2.03,2.607,2.032-.959,2.032-2.607" transform="translate(41.728 6.89)"/>
      <path id="Path_24919" data-name="Path 24919" d="M66.4,15.686c0-1.364,1.016-2.149,2.817-2.26l2.052-.119v-.653c0-.8-.528-1.253-1.551-1.253-.834,0-1.413.308-1.577.843H66.693c.153-1.3,1.377-2.136,3.094-2.136,1.9,0,2.97.945,2.97,2.546v5.173h-1.44V16.763H71.2a2.543,2.543,0,0,1-2.275,1.189,2.286,2.286,0,0,1-2.511-2.038c-.008-.076-.012-.151-.013-.227m4.869-.647v-.632l-1.85.118c-1.043.069-1.515.424-1.515,1.091,0,.683.592,1.078,1.4,1.078a1.785,1.785,0,0,0,1.956-1.6l.005-.059" transform="translate(45.267 6.891)"/>
      <path id="Path_24920" data-name="Path 24920" d="M71.348,15.176c0-2.393,1.229-3.908,3.143-3.908A2.492,2.492,0,0,1,76.814,12.6h.111V8.437h1.5V18.965H76.989v-1.2h-.119a2.63,2.63,0,0,1-2.378,1.322c-1.926,0-3.143-1.517-3.143-3.915m1.544,0c0,1.606.757,2.573,2.023,2.573s2.038-.98,2.038-2.566-.787-2.573-2.038-2.573S72.892,13.583,72.892,15.176Z" transform="translate(48.64 5.752)"/>
      <path id="Path_24921" data-name="Path 24921" d="M79.237,14.037a3.587,3.587,0,1,1,7.142,0,3.588,3.588,0,0,1-7.142.7,3.706,3.706,0,0,1,0-.7m5.605,0c0-1.641-.737-2.6-2.032-2.6s-2.03.96-2.03,2.6.732,2.607,2.03,2.607,2.032-.959,2.032-2.607" transform="translate(54.007 6.89)"/>
      <path id="Path_24922" data-name="Path 24922" d="M84.669,10.257h1.438v1.2h.113a2.267,2.267,0,0,1,2.26-1.349,2.461,2.461,0,0,1,2.62,2.817v4.9H89.607V13.3c0-1.218-.53-1.821-1.635-1.821a1.736,1.736,0,0,0-1.816,1.653,1.756,1.756,0,0,0,.008.266v4.43h-1.5Z" transform="translate(57.721 6.888)"/>
      <path id="Path_24923" data-name="Path 24923" d="M94.609,9.074v1.921h1.641v1.258H94.609v3.895c0,.792.326,1.14,1.071,1.14a4.989,4.989,0,0,0,.57-.035V18.5a5.088,5.088,0,0,1-.814.076c-1.662,0-2.324-.585-2.324-2.045V12.252h-1.2V10.995h1.2V9.074Z" transform="translate(62.658 6.186)"/>
      <path id="Path_24924" data-name="Path 24924" d="M95.705,8.437h1.482v4.172H97.3a2.33,2.33,0,0,1,2.309-1.355,2.494,2.494,0,0,1,2.627,2.354,2.579,2.579,0,0,1-.018.469v4.889h-1.5v-4.52c0-1.209-.563-1.823-1.62-1.823a1.77,1.77,0,0,0-1.907,1.62,1.635,1.635,0,0,0,0,.3v4.423h-1.5Z" transform="translate(65.245 5.752)"/>
      <path id="Path_24925" data-name="Path 24925" d="M107.523,15.782a3.074,3.074,0,0,1-3.281,2.191,3.441,3.441,0,0,1-3.53-3.348,3.284,3.284,0,0,1,.032-.56,3.488,3.488,0,0,1,3.491-3.957c2.107,0,3.379,1.44,3.379,3.818v.521h-5.348v.084a2,2,0,0,0,1.826,2.163c.064.005.126.007.19.007a1.817,1.817,0,0,0,1.8-.918Zm-5.257-2.44h3.824a1.827,1.827,0,0,0-1.687-1.958q-.088-.005-.177-.005a1.939,1.939,0,0,0-1.961,1.914Z" transform="translate(68.657 6.891)"/>
    </g>
  </g>
</svg>
