<svg xmlns="http://www.w3.org/2000/svg" width="50.001" height="50" viewBox="0 0 50.001 50">
  <g id="blufff" transform="translate(-280.635 -10.636)">
    <path id="_0c18a1c2dafd13bf79e626e837b6ca4e" data-name="0c18a1c2dafd13bf79e626e837b6ca4e" d="M25,46.363C40.373,46.352,46.42,40.4,46.363,25,46.42,9.6,40.373,3.65,25,3.637,9.628,3.65,3.581,9.6,3.638,25,3.581,40.4,9.628,46.352,25,46.363M25,50H25a38.583,38.583,0,0,1-10.885-1.334,21.367,21.367,0,0,1-4.465-1.86,16.845,16.845,0,0,1-6.519-6.537A21.268,21.268,0,0,1,1.29,35.823,38.139,38.139,0,0,1,0,25,38.138,38.138,0,0,1,1.29,14.178,21.267,21.267,0,0,1,3.127,9.733,16.844,16.844,0,0,1,9.646,3.2a21.37,21.37,0,0,1,4.466-1.861A38.593,38.593,0,0,1,25,0H25A38.592,38.592,0,0,1,35.889,1.335,21.369,21.369,0,0,1,40.355,3.2a16.844,16.844,0,0,1,6.519,6.537,21.267,21.267,0,0,1,1.837,4.445A38.138,38.138,0,0,1,50,25a38.139,38.139,0,0,1-1.29,10.823,21.268,21.268,0,0,1-1.838,4.446,16.845,16.845,0,0,1-6.519,6.537,21.368,21.368,0,0,1-4.465,1.86A38.583,38.583,0,0,1,25,50Z" transform="translate(280.635 10.636)" fill="#fff" opacity="0.9"/>
    <path id="Union_22" data-name="Union 22" d="M9.622,19.587H.487l.951-1.617a2.942,2.942,0,0,0,.015-3.039,9.794,9.794,0,1,1,18.132-5,9.964,9.964,0,0,1-9.957,9.653ZM7.823,5.15a5.076,5.076,0,1,0,1.97-.4A5.043,5.043,0,0,0,7.823,5.15Z" transform="translate(315.429 25.843) rotate(90)" fill="#fff"/>
  </g>
</svg>
